<svg xmlns="http://www.w3.org/2000/svg" xmlns:xlink="http://www.w3.org/1999/xlink" xmlns:lucid="lucid" width="1729.41" height="1760"><g transform="translate(0 0)" lucid:page-tab-id=".Q4MUjXso07N"><path d="M0 0h1729.4v1760H0z" fill="#fff"/><path d="M306.22 489.75c0 10.9-8.84 19.75-19.75 19.75-10.9 0-19.75-8.84-19.75-19.75 0-10.9 8.84-19.75 19.75-19.75 10.9 0 19.75 8.84 19.75 19.75z" stroke="#333" fill="#fff"/><path d="M286.47 509.5v50.3c0 2.76 1.2 6.9 2.67 9.22L326.47 628m-40-63.2l-40 63.2m0-98.75h80" stroke="#333" fill="none"/><path d="M246.47 475c0-2.76 2.24-5 5-5h70c2.76 0 5 2.24 5 5v170c0 2.76-2.24 5-5 5h-70c-2.76 0-5-2.24-5-5z" fill="none"/><use xlink:href="#a" transform="matrix(1,0,0,1,166.46954966781595,627.9989633254834) translate(94.34567901234567 14.888888888888888)"/><path d="M780 560c0 33.14-35.82 60-80 60s-80-26.86-80-60 35.82-60 80-60 80 26.86 80 60z" stroke="#fff" fill="#3278cc"/><use xlink:href="#b" transform="matrix(1,0,0,1,644,523.9989633254834) translate(14.592592592592588 39.55555555555556)"/><path d="M287.5 560H619M287.5 560H284" stroke="#333" fill="none"/><path d="M619.5 560v.5h-.5v-1h.52z" fill="#333"/><path d="M253.15 77c0-4.42 3.58-8 8-8h836.75c4.4 0 8 3.58 8 8v25.16c0 4.4-3.6 8-8 8H261.15c-4.42 0-8-3.6-8-8z" stroke="#000" stroke-opacity="0" stroke-width="2" fill="#fff" fill-opacity="0"/><use xlink:href="#c" transform="matrix(1,0,0,1,273.14655278534315,68.99999999994924) translate(289.11493827160496 27.584444444444443)"/><use xlink:href="#d" transform="matrix(1,0,0,1,273.14655278534315,68.99999999994924) translate(344.40012345679014 27.584444444444443)"/><use xlink:href="#e" transform="matrix(1,0,0,1,273.14655278534315,68.99999999994924) translate(414.2532098765432 27.584444444444443)"/><path d="M452.96 108.8h457.76M453 108.8h-1.04M910.7 108.8h1.02" stroke="#a9afb8" stroke-width="2" fill="none"/><path d="M253.15 118.16c0-4.42 3.58-8 8-8h837.7c4.42 0 8 3.58 8 8V121c0 4.42-3.58 8-8 8h-837.7c-4.42 0-8-3.58-8-8z" stroke="#000" stroke-opacity="0" stroke-width="2" fill="#fff" fill-opacity="0"/><use xlink:href="#f" transform="matrix(1,0,0,1,273.1465527853436,110.15522395684805) translate(289.08685185185186 14.917037037037037)"/><use xlink:href="#g" transform="matrix(1,0,0,1,273.1465527853436,110.15522395684805) translate(343.3887037037037 14.917037037037037)"/><use xlink:href="#h" transform="matrix(1,0,0,1,273.1465527853436,110.15522395684805) translate(426.49858024691355 14.917037037037037)"/><use xlink:href="#i" transform="matrix(1,0,0,1,273.1465527853436,110.15522395684805) translate(438.9480658436214 14.917037037037037)"/><use xlink:href="#j" transform="matrix(1,0,0,1,273.1465527853436,110.15522395684805) translate(472.04755144032924 14.917037037037037)"/><use xlink:href="#k" transform="matrix(1,0,0,1,273.1465527853436,110.15522395684805) translate(497.541378600823 14.917037037037037)"/><path d="M553.23 560c0 33.14-35.8 60-80 60-44.18 0-80-26.86-80-60s35.82-60 80-60c44.2 0 80 26.86 80 60z" stroke="#333" fill="#fff"/><use xlink:href="#l" transform="matrix(1,0,0,1,417.23477483389433,523.9989633255173) translate(-10.375 39.6)"/><path d="M840 400c0 33.14-35.82 60-80 60s-80-26.86-80-60 35.82-60 80-60 80 26.86 80 60z" stroke="#333" fill="#fff"/><use xlink:href="#m" transform="matrix(1,0,0,1,704,364) translate(24.099999999999994 28.799999999999997)"/><use xlink:href="#n" transform="matrix(1,0,0,1,704,364) translate(32.525 50.4)"/><path d="M1020 560c0 33.14-35.82 60-80 60s-80-26.86-80-60 35.82-60 80-60 80 26.86 80 60z" stroke="#333" fill="#fff"/><use xlink:href="#o" transform="matrix(1,0,0,1,884,523.9989633255173) translate(33.525 39.6)"/><path d="M880 760c0 33.14-35.82 60-80 60s-80-26.86-80-60 35.82-60 80-60 80 26.86 80 60z" stroke="#333" fill="#fff"/><use xlink:href="#p" transform="matrix(1,0,0,1,744,724) translate(29.049999999999997 39.6)"/><path d="M700 621v135.88c0 1.72 1.4 3.12 3.12 3.12" stroke="#333" fill="none"/><path d="M700 620.5h.5v.5h-1v-.52z" fill="#333"/><path d="M717.88 760l-14.26 4.64v-9.28z" stroke="#333" fill="#333"/><path d="M781 560h62.12" stroke="#333" fill="none"/><path d="M781 560.5h-.52l.02-.5v-.5h.5z" fill="#333"/><path d="M857.88 560l-14.26 4.63v-9.27z" stroke="#333" fill="#333"/><path d="M700 499v-7.88c0-6.63 5.37-12 12-12h24.76c2.2 0 4-1.8 4-4" stroke="#333" fill="none"/><path d="M700.5 499.5h-1v-.5h1z" fill="#333"/><path d="M740.75 460.36l4.64 14.27h-9.28z" stroke="#333" fill="#333"/><path d="M679 400h-75.12c-6.62 0-12 5.37-12 12v103.76c0 6.63 5.38 12 12 12h11.62" stroke="#333" fill="none"/><path d="M679.5 400v.5h-.5v-1h.52z" fill="#333"/><path d="M630.26 527.76L616 532.4v-9.27z" stroke="#333" fill="#333"/><path d="M1266.85 540c0 33.14-35.8 60-80 60-44.18 0-80-26.86-80-60s35.82-60 80-60c44.2 0 80 26.86 80 60z" stroke="#333" fill="#fff"/><use xlink:href="#q" transform="matrix(1,0,0,1,1130.8534472146569,504) translate(14.549999999999997 28.799999999999997)"/><use xlink:href="#r" transform="matrix(1,0,0,1,1130.8534472146569,504) translate(74.5 28.799999999999997)"/><use xlink:href="#s" transform="matrix(1,0,0,1,1130.8534472146569,504) translate(41.5 50.4)"/><path d="M1021 560h32.43c5.52 0 10-4.48 10-10s4.47-10 10-10h16.54" stroke="#333" fill="none"/><path d="M1021 560.5h-.52l.02-.5v-.5h.5z" fill="#333"/><path d="M1104.74 540l-14.27 4.64v-9.28z" stroke="#333" fill="#333"/><path d="M1300 780c0 33.14-35.82 60-80 60s-80-26.86-80-60 35.82-60 80-60 80 26.86 80 60z" stroke="#333" fill="#fff"/><use xlink:href="#t" transform="matrix(1,0,0,1,1164,744) translate(3.0749999999999957 28.799999999999997)"/><use xlink:href="#u" transform="matrix(1,0,0,1,1164,744) translate(50.025 28.799999999999997)"/><use xlink:href="#v" transform="matrix(1,0,0,1,1164,744) translate(18.249999999999993 50.4)"/><path d="M1520 680c0 33.14-35.82 60-80 60s-80-26.86-80-60 35.82-60 80-60 80 26.86 80 60z" stroke="#333" fill="#fff"/><use xlink:href="#t" transform="matrix(1,0,0,1,1384,643.9989633254834) translate(7.024999999999999 18)"/><use xlink:href="#w" transform="matrix(1,0,0,1,1384,643.9989633254834) translate(53.975 18)"/><use xlink:href="#x" transform="matrix(1,0,0,1,1384,643.9989633254834) translate(25.049999999999997 39.6)"/><use xlink:href="#y" transform="matrix(1,0,0,1,1384,643.9989633254834) translate(81.95 39.6)"/><use xlink:href="#z" transform="matrix(1,0,0,1,1384,643.9989633254834) translate(31.224999999999998 61.2)"/><path d="M1600 500c0 33.14-35.82 60-80 60s-80-26.86-80-60 35.82-60 80-60 80 26.86 80 60z" stroke="#333" fill="#fff"/><use xlink:href="#t" transform="matrix(1,0,0,1,1464,464) translate(16.049999999999997 39.6)"/><use xlink:href="#A" transform="matrix(1,0,0,1,1464,464) translate(63 39.6)"/><path d="M1300 1020c0 33.14-35.82 60-80 60s-80-26.86-80-60 35.82-60 80-60 80 26.86 80 60z" stroke="#333" fill="#fff"/><use xlink:href="#B" transform="matrix(1,0,0,1,1164,984) translate(9.549999999999997 39.6)"/><use xlink:href="#C" transform="matrix(1,0,0,1,1164,984) translate(63.5 39.6)"/><path d="M1220 841v102.12" stroke="#333" fill="none"/><path d="M1220 840.5h.5v.5h-1v-.52z" fill="#333"/><path d="M1220 957.88l-4.64-14.26h9.28z" stroke="#333" fill="#333"/><path d="M1139 1020H664.04c-6.63 0-12-5.37-12-12V624.96" stroke="#333" fill="none"/><path d="M1139.5 1020v.5h-.5v-1h.52z" fill="#333"/><path d="M652.04 610.2l4.63 14.26h-9.27z" stroke="#333" fill="#333"/><path d="M1186.85 601v107.48" stroke="#333" fill="none"/><path d="M1186.85 600.5h.5v.5h-1v-.52z" fill="#333"/><path d="M1186.85 723.25l-4.63-14.27h9.27z" stroke="#333" fill="#333"/><path d="M1139 780h-48.28c-6.63 0-12-5.37-12-12V584.23c0-6.62 5.37-12 12-12h11.6" stroke="#333" fill="none"/><path d="M1139.5 780v.5h-.5v-1h.52z" fill="#333"/><path d="M1117.1 572.23l-14.27 4.64v-9.27z" stroke="#333" fill="#333"/><path d="M1267.85 540h40.52c6.63 0 12 5.37 12 12v82.04c0 6.63 5.38 12 12 12H1357" stroke="#333" fill="none"/><path d="M1267.87 540.5h-.53v-1h.53z" fill="#333"/><path d="M1371.77 646.04l-14.26 4.63v-9.27z" stroke="#333" fill="#333"/><path d="M1359 680h-40.52c-6.63 0-12-5.37-12-12v-82.04c0-6.63-5.37-12-12-12h-24.63" stroke="#333" fill="none"/><path d="M1359.5 680v.5h-.5v-1h.52z" fill="#333"/><path d="M1255.08 573.96l14.27-4.64v9.28z" stroke="#333" fill="#333"/><path d="M1186.85 479v-67.5c0-6.63 5.38-12 12-12H1508c6.63 0 12 5.37 12 12v11.62" stroke="#333" fill="none"/><path d="M1187.35 479.52l-.5-.02h-.5v-.5h1z" fill="#333"/><path d="M1520 437.88l-4.64-14.26h9.28z" stroke="#333" fill="#333"/><path d="M1321.1 500.5h-57.5v-1h57.5zm117.9 0h-73.4v-1h73.4zM1439.5 500v.5h-.5v-1h.52zM1263.1 504.64l-14.27-4.64 14.27-4.64z" fill="#333"/><path d="M1263.6 505.32l-16.4-5.32 16.4-5.32zm-13.15-5.32l12.15 3.95v-7.9z" fill="#333"/><use xlink:href="#D" transform="matrix(1,0,0,1,1321.1073266649203,489.2) translate(0.004999999999999005 14.4)"/><use xlink:href="#E" transform="matrix(1,0,0,1,1321.1073266649203,489.2) translate(25.505 14.4)"/><path d="M1141.22 489.7V355.96c0-.34-.27-.6-.6-.6-.35 0-.62-.3-.62-.62V236.88" stroke="#333" fill="none"/><path d="M1141.72 489.94l-1 .5v-.76h1z" fill="#333"/><path d="M1140 222.12l4.64 14.26h-9.28z" stroke="#333" fill="#333"/><path d="M1220 160c0 33.14-35.82 60-80 60s-80-26.86-80-60 35.82-60 80-60 80 26.86 80 60z" stroke="#333" fill="#fff"/><use xlink:href="#t" transform="matrix(1,0,0,1,1084,124) translate(15.024999999999999 39.6)"/><use xlink:href="#F" transform="matrix(1,0,0,1,1084,124) translate(61.975 39.6)"/><use xlink:href="#G" transform="matrix(1,0,0,1,1084,124) translate(86.975 39.6)"/><path d="M1460 220c0 33.14-35.82 60-80 60s-80-26.86-80-60 35.82-60 80-60 80 26.86 80 60z" stroke="#333" fill="#fff"/><g><use xlink:href="#H" transform="matrix(1,0,0,1,1324,184) translate(0.5499999999999972 28.799999999999997)"/><use xlink:href="#I" transform="matrix(1,0,0,1,1324,184) translate(26.525 50.4)"/></g><path d="M1260.5 207.97l.4 3 1.14 2.77 1.83 2.4 2.4 1.82 2.75 1.14 3 .4h11.1v1h-11.15l-3.2-.42-3-1.24-2.6-2-2-2.6-1.25-3-.42-3.2V181.8h1zm-8.56-47.76h-8.4v.3H1221v-1h27.03l3.2.42zM1221 160.5h-.52l.02-.5v-.5h.5zM1297.88 220l-14.26 4.64v-9.28z" fill="#333"/><path d="M1299.5 220l-16.38 5.32v-10.64zm-15.38 3.95l12.14-3.95-12.14-3.95z" fill="#333"/><g><use xlink:href="#J" transform="matrix(1,0,0,1,1243.525,160.20840336134452) translate(0.004999999999999005 14.4)"/></g><path d="M1380.5 373.38l-.42 3.2-1.24 3-2 2.6-2.6 2-3 1.25-3.2.42h-214.8l-3 .4-2.76 1.13-2.4 1.84-1.82 2.4-1.14 2.74-.4 3.02v76.43h-1v-76.48l.42-3.22 1.24-3 2-2.6 2.6-2 3-1.23 3.2-.42H1368l3-.4 2.76-1.14 2.4-1.82 1.82-2.4 1.14-2.75.4-3V281h1zM1380 280.5h.5v.5h-1v-.52zM1141.22 488.58l-4.63-14.27h9.26z" fill="#333"/><path d="M1141.22 490.2l-5.32-16.4h10.64zm-3.95-15.4l3.95 12.16 3.95-12.15z" fill="#333"/><path d="M1140 99V71.5c0-6.63 5.37-12 12-12h335.5c6.63 0 12 5.37 12 12v36.08c0 6.63 5.37 12 12 12h11.62" stroke="#333" fill="none"/><path d="M1140.5 99.52l-.5-.02h-.5V99h1z" fill="#333"/><path d="M1537.88 119.58l-14.26 4.63v-9.26z" stroke="#333" fill="#333"/><path d="M1700 119.58c0 33.13-35.82 60-80 60s-80-26.87-80-60c0-33.14 35.82-60 80-60s80 26.86 80 60z" stroke="#333" fill="#c7e8ac"/><g><use xlink:href="#K" transform="matrix(1,0,0,1,1564,83.57761197851505) translate(21.25 39.6)"/><use xlink:href="#L" transform="matrix(1,0,0,1,1564,83.57761197851505) translate(85.75 39.6)"/></g><path d="M1611.24 19l3 1.24 2.6 2 2 2.6 1.24 3 .42 3.2v27.54h-1V31.1l-.4-3-1.14-2.76-1.83-2.4-2.4-1.83-2.75-1.13-3-.4H672.5l-3 .4-2.77 1.14-2.4 1.85-1.82 2.4-1.14 2.74-.4 3v73.08l-3.15 1.02-1.63 2.23-.2 1.34.86 2.7 2.23 1.6 1.9.32v281.96l-3.15 1.03-1.63 2.22-.2 1.34.86 2.68 2.23 1.63 1.9.3v86.36h-1v-85.5l-1.3-.2-2.67-1.97-1.05-3.22.3-1.82 1.95-2.68 2.76-.9v-280.4l-1.3-.2-2.67-1.97-1.05-3.22.3-1.82 1.95-2.68 2.76-.9v-72.4l.4-3.22 1.26-3 2-2.6 2.6-2 3-1.23 3.2-.42h935.57z" fill="#333"/><path d="M1620.5 59.1l-.5-.02h-.5v-.52h1zM660.5 505.7l-4.64-14.27h9.27z" fill="#333"/><path d="M660.5 507.3l-5.33-16.37h10.65zm-3.95-15.37l3.94 12.14 3.94-12.14z" fill="#333"/><defs><path fill="#333" d="M187 0l-14-72H61L19 0h-37l149-248h38L221 0h-34zm-19-99l-22-123L76-99h92" id="M"/><path fill="#333" d="M44-68c0 29 11 47 38 47 30 0 42-19 51-41l28 9C148-21 126 4 82 4 31 4 10-29 12-85c3-77 74-140 146-93 12 8 15 23 18 40l-31 5c-1-22-13-36-36-36-52 0-65 49-65 101" id="N"/><path fill="#333" d="M51-54c-9 22 5 41 31 30L79-1C43 14 10-4 19-52l22-115H19l5-23h22l19-43h21l-9 43h35l-4 23H73" id="O"/><path fill="#333" d="M111-194c62-3 86 47 72 106H45c-7 38 6 69 45 68 27-1 43-14 53-32l24 11C152-15 129 4 87 4 38 3 12-23 12-71c0-70 32-119 99-123zm44 81c14-66-71-72-95-28-4 8-8 17-11 28h106" id="P"/><path fill="#333" d="M67 3c-93-2-31-127-26-193h32L48-50c-3 39 53 32 70 12 30-34 30-101 43-152h32L157 0h-30c1-10 6-24 4-33-14 20-29 37-64 36" id="Q"/><path fill="#333" d="M66-151c12-25 30-51 66-40l-6 26C45-176 58-65 38 0H6l36-190h30" id="R"/><g id="a"><use transform="matrix(0.04938271604938272,0,0,0.04938271604938272,0,0)" xlink:href="#M"/><use transform="matrix(0.04938271604938272,0,0,0.04938271604938272,11.851851851851853,0)" xlink:href="#N"/><use transform="matrix(0.04938271604938272,0,0,0.04938271604938272,20.74074074074074,0)" xlink:href="#O"/><use transform="matrix(0.04938271604938272,0,0,0.04938271604938272,25.679012345679016,0)" xlink:href="#P"/><use transform="matrix(0.04938271604938272,0,0,0.04938271604938272,35.55555555555556,0)" xlink:href="#Q"/><use transform="matrix(0.04938271604938272,0,0,0.04938271604938272,45.4320987654321,0)" xlink:href="#R"/></g><path fill="#fff" d="M222 0l43-216c-8 16-17 34-26 49L143 0h-22L81-216 41 0H11l48-248h42l38 208 116-208h45L252 0h-30" id="S"/><path fill="#fff" d="M165-48c-4 18 1 34 23 27l-3 20c-29 8-62 0-52-35h-2C116-14 99 4 63 4 30 4 8-16 8-49c0-68 71-67 138-67 10-26 0-56-31-54-26 1-42 9-47 31l-32-5c8-67 160-71 144 15-5 28-9 54-15 81zM42-50c3 52 80 24 89-6 7-12 7-24 11-38-47 1-103-4-100 44" id="T"/><path fill="#fff" d="M50-231l6-30h32l-6 30H50zM6 0l37-190h31L37 0H6" id="U"/><path fill="#fff" d="M67-158c22-48 132-52 116 29L158 0h-32l25-140c3-38-53-32-70-12C52-117 51-52 38 0H6l36-190h30" id="V"/><path fill="#fff" d="M111-194c62-3 86 47 72 106H45c-7 38 6 69 45 68 27-1 43-14 53-32l24 11C152-15 129 4 87 4 38 3 12-23 12-71c0-70 32-119 99-123zm44 81c14-66-71-72-95-28-4 8-8 17-11 28h106" id="W"/><path fill="#fff" d="M67 3c-93-2-31-127-26-193h32L48-50c-3 39 53 32 70 12 30-34 30-101 43-152h32L157 0h-30c1-10 6-24 4-33-14 20-29 37-64 36" id="X"/><g id="b"><use transform="matrix(0.04938271604938272,0,0,0.04938271604938272,0,0)" xlink:href="#S"/><use transform="matrix(0.04938271604938272,0,0,0.04938271604938272,14.765432098765434,0)" xlink:href="#T"/><use transform="matrix(0.04938271604938272,0,0,0.04938271604938272,24.641975308641978,0)" xlink:href="#U"/><use transform="matrix(0.04938271604938272,0,0,0.04938271604938272,28.543209876543212,0)" xlink:href="#V"/><use transform="matrix(0.04938271604938272,0,0,0.04938271604938272,38.41975308641976,0)" xlink:href="#S"/><use transform="matrix(0.04938271604938272,0,0,0.04938271604938272,53.18518518518519,0)" xlink:href="#W"/><use transform="matrix(0.04938271604938272,0,0,0.04938271604938272,63.061728395061735,0)" xlink:href="#V"/><use transform="matrix(0.04938271604938272,0,0,0.04938271604938272,72.93827160493828,0)" xlink:href="#X"/></g><path fill="#a9afb8" d="M238-95c0 69-44 99-111 99C63 4 22-25 22-93v-155h51v151c-1 38 19 59 55 60 90 1 49-130 58-211h52v153" id="Y"/><path fill="#a9afb8" d="M137-138c1-29-70-34-71-4 15 46 118 7 119 86 1 83-164 76-172 9l43-7c4 19 20 25 44 25 33 8 57-30 24-41C81-84 22-81 20-136c-2-80 154-74 161-7" id="Z"/><path fill="#a9afb8" d="M185-48c-13 30-37 53-82 52C43 2 14-33 14-96s30-98 90-98c62 0 83 45 84 108H66c0 31 8 55 39 56 18 0 30-7 34-22zm-45-69c5-46-57-63-70-21-2 6-4 13-4 21h74" id="aa"/><g id="c"><use transform="matrix(0.0728395061728395,0,0,0.0728395061728395,0,0)" xlink:href="#Y"/><use transform="matrix(0.0728395061728395,0,0,0.0728395061728395,18.86543209876543,0)" xlink:href="#Z"/><use transform="matrix(0.0728395061728395,0,0,0.0728395061728395,33.43333333333333,0)" xlink:href="#aa"/></g><path fill="#a9afb8" d="M67-125c0 53 21 87 73 88 37 1 54-22 65-47l45 17C233-25 199 4 140 4 58 4 20-42 15-125 8-235 124-281 211-232c18 10 29 29 36 50l-46 12c-8-25-30-41-62-41-52 0-71 34-72 86" id="ab"/><path fill="#a9afb8" d="M133-34C117-15 103 5 69 4 32 3 11-16 11-54c-1-60 55-63 116-61 1-26-3-47-28-47-18 1-26 9-28 27l-52-2c7-38 36-58 82-57s74 22 75 68l1 82c-1 14 12 18 25 15v27c-30 8-71 5-69-32zm-48 3c29 0 43-24 42-57-32 0-66-3-65 30 0 17 8 27 23 27" id="ac"/><g id="d"><use transform="matrix(0.0728395061728395,0,0,0.0728395061728395,0,0)" xlink:href="#ab"/><use transform="matrix(0.0728395061728395,0,0,0.0728395061728395,18.86543209876543,0)" xlink:href="#ac"/><use transform="matrix(0.0728395061728395,0,0,0.0728395061728395,33.43333333333333,0)" xlink:href="#Z"/><use transform="matrix(0.0728395061728395,0,0,0.0728395061728395,48.00123456790123,0)" xlink:href="#aa"/></g><path fill="#a9afb8" d="M24-248c120-7 223 5 221 122C244-46 201 0 124 0H24v-248zM76-40c74 7 117-18 117-86 0-67-45-88-117-82v168" id="ad"/><path fill="#a9afb8" d="M67-125c0 54 23 88 75 88 28 0 53-7 68-21v-34h-60v-39h108v91C232-14 192 4 140 4 58 4 20-42 15-125 8-236 126-280 215-234c19 10 29 26 37 47l-47 15c-11-23-29-39-63-39-53 1-75 33-75 86" id="ae"/><path fill="#a9afb8" d="M199 0l-22-63H83L61 0H9l90-248h61L250 0h-51zm-33-102l-36-108c-10 38-24 72-36 108h72" id="af"/><path fill="#a9afb8" d="M230 0l2-204L168 0h-37L68-204 70 0H24v-248h70l56 185 57-185h69V0h-46" id="ag"/><path fill="#a9afb8" d="M24 0v-248h195v40H76v63h132v40H76v65h150V0H24" id="ah"/><g id="e"><use transform="matrix(0.0728395061728395,0,0,0.0728395061728395,0,0)" xlink:href="#ad"/><use transform="matrix(0.0728395061728395,0,0,0.0728395061728395,18.86543209876543,0)" xlink:href="#ad"/><use transform="matrix(0.0728395061728395,0,0,0.0728395061728395,37.73086419753086,0)" xlink:href="#ae"/><use transform="matrix(0.0728395061728395,0,0,0.0728395061728395,58.12592592592593,0)" xlink:href="#af"/><use transform="matrix(0.0728395061728395,0,0,0.0728395061728395,76.99135802469135,0)" xlink:href="#ag"/><use transform="matrix(0.0728395061728395,0,0,0.0728395061728395,98.77037037037036,0)" xlink:href="#ah"/></g><path fill="#a9afb8" d="M153-248C145-148 188 4 80 4 36 3 13-21 6-62l32-5c4 25 16 42 43 43 27 0 39-20 39-49v-147H72v-28h81" id="ai"/><path fill="#a9afb8" d="M100-194c63 0 86 42 84 106H49c0 40 14 67 53 68 26 1 43-12 49-29l28 8c-11 28-37 45-77 45C44 4 14-33 15-96c1-61 26-98 85-98zm52 81c6-60-76-77-97-28-3 7-6 17-6 28h103" id="aj"/><path fill="#a9afb8" d="M114-163C36-179 61-72 57 0H25l-1-190h30c1 12-1 29 2 39 6-27 23-49 58-41v29" id="ak"/><path fill="#a9afb8" d="M210-169c-67 3-38 105-44 169h-31v-121c0-29-5-50-35-48C34-165 62-65 56 0H25l-1-190h30c1 10-1 24 2 32 10-44 99-50 107 0 11-21 27-35 58-36 85-2 47 119 55 194h-31v-121c0-29-5-49-35-48" id="al"/><path fill="#a9afb8" d="M179-190L93 31C79 59 56 82 12 73V49c39 6 53-20 64-50L1-190h34L92-34l54-156h33" id="am"/><g id="f"><use transform="matrix(0.04248971193415638,0,0,0.04248971193415638,0,0)" xlink:href="#ai"/><use transform="matrix(0.04248971193415638,0,0,0.04248971193415638,7.648148148148148,0)" xlink:href="#aj"/><use transform="matrix(0.04248971193415638,0,0,0.04248971193415638,16.14609053497942,0)" xlink:href="#ak"/><use transform="matrix(0.04248971193415638,0,0,0.04248971193415638,21.20236625514403,0)" xlink:href="#aj"/><use transform="matrix(0.04248971193415638,0,0,0.04248971193415638,29.7003086419753,0)" xlink:href="#al"/><use transform="matrix(0.04248971193415638,0,0,0.04248971193415638,42.40473251028806,0)" xlink:href="#am"/></g><path fill="#a9afb8" d="M212-179c-10-28-35-45-73-45-59 0-87 40-87 99 0 60 29 101 89 101 43 0 62-24 78-52l27 14C228-24 195 4 139 4 59 4 22-46 18-125c-6-104 99-153 187-111 19 9 31 26 39 46" id="an"/><path fill="#a9afb8" d="M205 0l-28-72H64L36 0H1l101-248h38L239 0h-34zm-38-99l-47-123c-12 45-31 82-46 123h93" id="ao"/><path fill="#a9afb8" d="M233-177c-1 41-23 64-60 70L243 0h-38l-65-103H63V0H30v-248c88 3 205-21 203 71zM63-129c60-2 137 13 137-47 0-61-80-42-137-45v92" id="ap"/><path fill="#a9afb8" d="M232-93c-1 65-40 97-104 97C67 4 28-28 28-90v-158h33c8 89-33 224 67 224 102 0 64-133 71-224h33v155" id="aq"/><path fill="#a9afb8" d="M160-131c35 5 61 23 61 61C221 17 115-2 30 0v-248c76 3 177-17 177 60 0 33-19 50-47 57zm-97-11c50-1 110 9 110-42 0-47-63-36-110-37v79zm0 115c55-2 124 14 124-45 0-56-70-42-124-44v89" id="ar"/><g id="g"><use transform="matrix(0.04248971193415638,0,0,0.04248971193415638,0,0)" xlink:href="#an"/><use transform="matrix(0.04248971193415638,0,0,0.04248971193415638,11.004835390946502,0)" xlink:href="#ao"/><use transform="matrix(0.04248971193415638,0,0,0.04248971193415638,21.20236625514403,0)" xlink:href="#ap"/><use transform="matrix(0.04248971193415638,0,0,0.04248971193415638,32.20720164609053,0)" xlink:href="#ap"/><use transform="matrix(0.04248971193415638,0,0,0.04248971193415638,43.212037037037035,0)" xlink:href="#aq"/><use transform="matrix(0.04248971193415638,0,0,0.04248971193415638,54.21687242798354,0)" xlink:href="#ar"/><use transform="matrix(0.04248971193415638,0,0,0.04248971193415638,64.41440329218106,0)" xlink:href="#ao"/></g><path fill="#a9afb8" d="M32 76v-337h29V76H32" id="as"/><use transform="matrix(0.04248971193415638,0,0,0.04248971193415638,0,0)" xlink:href="#as" id="h"/><path fill="#a9afb8" d="M240 0l2-218c-23 76-54 145-80 218h-23L58-218 59 0H30v-248h44l77 211c21-75 51-140 76-211h43V0h-30" id="at"/><path fill="#a9afb8" d="M141-36C126-15 110 5 73 4 37 3 15-17 15-53c-1-64 63-63 125-63 3-35-9-54-41-54-24 1-41 7-42 31l-33-3c5-37 33-52 76-52 45 0 72 20 72 64v82c-1 20 7 32 28 27v20c-31 9-61-2-59-35zM48-53c0 20 12 33 32 33 41-3 63-29 60-74-43 2-92-5-92 41" id="au"/><g id="i"><use transform="matrix(0.04248971193415638,0,0,0.04248971193415638,0,0)" xlink:href="#at"/><use transform="matrix(0.04248971193415638,0,0,0.04248971193415638,12.704423868312757,0)" xlink:href="#au"/><use transform="matrix(0.04248971193415638,0,0,0.04248971193415638,21.20236625514403,0)" xlink:href="#am"/></g><path fill="#a9afb8" d="M27 0v-27h64v-190l-56 39v-29l58-41h29v221h61V0H27" id="av"/><path fill="#a9afb8" d="M99-251c64 0 84 50 84 122C183-37 130 33 47-8c-14-7-20-23-25-40l30-5c6 39 69 39 84 7 9-19 16-44 16-74-10 22-31 35-62 35-49 0-73-33-73-83 0-54 28-83 82-83zm-1 141c31-1 51-18 51-49 0-36-14-67-51-67-34 0-49 23-49 58 0 34 15 58 49 58" id="aw"/><path fill="#a9afb8" d="M68-38c1 34 0 65-14 84H32c9-13 17-26 17-46H33v-38h35" id="ax"/><g id="j"><use transform="matrix(0.04248971193415638,0,0,0.04248971193415638,0,0)" xlink:href="#av"/><use transform="matrix(0.04248971193415638,0,0,0.04248971193415638,8.497942386831275,0)" xlink:href="#aw"/><use transform="matrix(0.04248971193415638,0,0,0.04248971193415638,16.99588477366255,0)" xlink:href="#ax"/></g><path fill="#a9afb8" d="M101-251c82-7 93 87 43 132L82-64C71-53 59-42 53-27h129V0H18c2-99 128-94 128-182 0-28-16-43-45-43s-46 15-49 41l-32-3c6-41 34-60 81-64" id="ay"/><path fill="#a9afb8" d="M101-251c68 0 85 55 85 127S166 4 100 4C33 4 14-52 14-124c0-73 17-127 87-127zm-1 229c47 0 54-49 54-102s-4-102-53-102c-51 0-55 48-55 102 0 53 5 102 54 102" id="az"/><g id="k"><use transform="matrix(0.04248971193415638,0,0,0.04248971193415638,0,0)" xlink:href="#ay"/><use transform="matrix(0.04248971193415638,0,0,0.04248971193415638,8.497942386831275,0)" xlink:href="#az"/><use transform="matrix(0.04248971193415638,0,0,0.04248971193415638,16.99588477366255,0)" xlink:href="#ay"/><use transform="matrix(0.04248971193415638,0,0,0.04248971193415638,25.493827160493822,0)" xlink:href="#az"/></g><path d="M212-179c-10-28-35-45-73-45-59 0-87 40-87 99 0 60 29 101 89 101 43 0 62-24 78-52l27 14C228-24 195 4 139 4 59 4 22-46 18-125c-6-104 99-153 187-111 19 9 31 26 39 46" id="aA"/><path d="M114-163C36-179 61-72 57 0H25l-1-190h30c1 12-1 29 2 39 6-27 23-49 58-41v29" id="aB"/><path d="M100-194c63 0 86 42 84 106H49c0 40 14 67 53 68 26 1 43-12 49-29l28 8c-11 28-37 45-77 45C44 4 14-33 15-96c1-61 26-98 85-98zm52 81c6-60-76-77-97-28-3 7-6 17-6 28h103" id="aC"/><path d="M141-36C126-15 110 5 73 4 37 3 15-17 15-53c-1-64 63-63 125-63 3-35-9-54-41-54-24 1-41 7-42 31l-33-3c5-37 33-52 76-52 45 0 72 20 72 64v82c-1 20 7 32 28 27v20c-31 9-61-2-59-35zM48-53c0 20 12 33 32 33 41-3 63-29 60-74-43 2-92-5-92 41" id="aD"/><path d="M59-47c-2 24 18 29 38 22v24C64 9 27 4 27-40v-127H5v-23h24l9-43h21v43h35v23H59v120" id="aE"/><path d="M106-169C34-169 62-67 57 0H25v-261h32l-1 103c12-21 28-36 61-36 89 0 53 116 60 194h-32v-121c2-32-8-49-39-48" id="aF"/><path d="M96-169c-40 0-48 33-48 73s9 75 48 75c24 0 41-14 43-38l32 2c-6 37-31 61-74 61-59 0-76-41-82-99-10-93 101-131 147-64 4 7 5 14 7 22l-32 3c-4-21-16-35-41-35" id="aG"/><g id="l"><use transform="matrix(0.05,0,0,0.05,0,0)" xlink:href="#aA"/><use transform="matrix(0.05,0,0,0.05,12.950000000000001,0)" xlink:href="#aB"/><use transform="matrix(0.05,0,0,0.05,18.900000000000002,0)" xlink:href="#aC"/><use transform="matrix(0.05,0,0,0.05,28.900000000000002,0)" xlink:href="#aD"/><use transform="matrix(0.05,0,0,0.05,38.900000000000006,0)" xlink:href="#aE"/><use transform="matrix(0.05,0,0,0.05,43.900000000000006,0)" xlink:href="#aC"/><use transform="matrix(0.05,0,0,0.05,53.900000000000006,0)" xlink:href="#aA"/><use transform="matrix(0.05,0,0,0.05,66.85000000000001,0)" xlink:href="#aF"/><use transform="matrix(0.05,0,0,0.05,76.85000000000001,0)" xlink:href="#aD"/><use transform="matrix(0.05,0,0,0.05,86.85000000000001,0)" xlink:href="#aB"/><use transform="matrix(0.05,0,0,0.05,92.80000000000001,0)" xlink:href="#aD"/><use transform="matrix(0.05,0,0,0.05,102.80000000000001,0)" xlink:href="#aG"/><use transform="matrix(0.05,0,0,0.05,111.80000000000001,0)" xlink:href="#aE"/><use transform="matrix(0.05,0,0,0.05,116.80000000000001,0)" xlink:href="#aC"/><use transform="matrix(0.05,0,0,0.05,126.80000000000001,0)" xlink:href="#aB"/></g><path d="M240 0l2-218c-23 76-54 145-80 218h-23L58-218 59 0H30v-248h44l77 211c21-75 51-140 76-211h43V0h-30" id="aH"/><path d="M100-194c62-1 85 37 85 99 1 63-27 99-86 99S16-35 15-95c0-66 28-99 85-99zM99-20c44 1 53-31 53-75 0-43-8-75-51-75s-53 32-53 75 10 74 51 75" id="aI"/><path d="M85-194c31 0 48 13 60 33l-1-100h32l1 261h-30c-2-10 0-23-3-31C134-8 116 4 85 4 32 4 16-35 15-94c0-66 23-100 70-100zm9 24c-40 0-46 34-46 75 0 40 6 74 45 74 42 0 51-32 51-76 0-42-9-74-50-73" id="aJ"/><path d="M24-231v-30h32v30H24zM24 0v-190h32V0H24" id="aK"/><path d="M101-234c-31-9-42 10-38 44h38v23H63V0H32v-167H5v-23h27c-7-52 17-82 69-68v24" id="aL"/><g id="m"><use transform="matrix(0.05,0,0,0.05,0,0)" xlink:href="#aH"/><use transform="matrix(0.05,0,0,0.05,14.950000000000001,0)" xlink:href="#aI"/><use transform="matrix(0.05,0,0,0.05,24.950000000000003,0)" xlink:href="#aJ"/><use transform="matrix(0.05,0,0,0.05,34.95,0)" xlink:href="#aK"/><use transform="matrix(0.05,0,0,0.05,38.900000000000006,0)" xlink:href="#aL"/><use transform="matrix(0.05,0,0,0.05,43.900000000000006,0)" xlink:href="#aK"/><use transform="matrix(0.05,0,0,0.05,47.85000000000001,0)" xlink:href="#aC"/><use transform="matrix(0.05,0,0,0.05,57.85,0)" xlink:href="#aB"/></g><path d="M30-248c87 1 191-15 191 75 0 78-77 80-158 76V0H30v-248zm33 125c57 0 124 11 124-50 0-59-68-47-124-48v98" id="aM"/><path d="M135-143c-3-34-86-38-87 0 15 53 115 12 119 90S17 21 10-45l28-5c4 36 97 45 98 0-10-56-113-15-118-90-4-57 82-63 122-42 12 7 21 19 24 35" id="aN"/><g id="n"><use transform="matrix(0.05,0,0,0.05,0,0)" xlink:href="#aM"/><use transform="matrix(0.05,0,0,0.05,12,0)" xlink:href="#aC"/><use transform="matrix(0.05,0,0,0.05,22,0)" xlink:href="#aB"/><use transform="matrix(0.05,0,0,0.05,27.950000000000003,0)" xlink:href="#aN"/><use transform="matrix(0.05,0,0,0.05,36.95,0)" xlink:href="#aI"/></g><path d="M153-248C145-148 188 4 80 4 36 3 13-21 6-62l32-5c4 25 16 42 43 43 27 0 39-20 39-49v-147H72v-28h81" id="aO"/><path d="M84 4C-5 8 30-112 23-190h32v120c0 31 7 50 39 49 72-2 45-101 50-169h31l1 190h-30c-1-10 1-25-2-33-11 22-28 36-60 37" id="aP"/><g id="o"><use transform="matrix(0.05,0,0,0.05,0,0)" xlink:href="#aO"/><use transform="matrix(0.05,0,0,0.05,9,0)" xlink:href="#aI"/><use transform="matrix(0.05,0,0,0.05,19,0)" xlink:href="#aP"/><use transform="matrix(0.05,0,0,0.05,29,0)" xlink:href="#aC"/><use transform="matrix(0.05,0,0,0.05,39,0)" xlink:href="#aB"/></g><path d="M140-251c81 0 123 46 123 126C263-53 228-8 163 1c7 30 30 48 69 40v23c-55 16-95-15-103-61C56-3 17-48 17-125c0-80 42-126 123-126zm0 227c63 0 89-41 89-101s-29-99-89-99c-61 0-89 39-89 99S79-25 140-24" id="aQ"/><g id="p"><use transform="matrix(0.05,0,0,0.05,0,0)" xlink:href="#aQ"/><use transform="matrix(0.05,0,0,0.05,14,0)" xlink:href="#aP"/><use transform="matrix(0.05,0,0,0.05,24,0)" xlink:href="#aK"/><use transform="matrix(0.05,0,0,0.05,27.950000000000003,0)" xlink:href="#aE"/><use transform="matrix(0.05,0,0,0.05,32.95,0)" xlink:href="#aE"/><use transform="matrix(0.05,0,0,0.05,37.95,0)" xlink:href="#aC"/><use transform="matrix(0.05,0,0,0.05,47.95,0)" xlink:href="#aB"/></g><path d="M30 0v-248h33v221h125V0H30" id="aR"/><path d="M117-194c89-4 53 116 60 194h-32v-121c0-31-8-49-39-48C34-167 62-67 57 0H25l-1-190h30c1 10-1 24 2 32 11-22 29-35 61-36" id="aS"/><g id="q"><use transform="matrix(0.05,0,0,0.05,0,0)" xlink:href="#aR"/><use transform="matrix(0.05,0,0,0.05,10,0)" xlink:href="#aD"/><use transform="matrix(0.05,0,0,0.05,20,0)" xlink:href="#aS"/><use transform="matrix(0.05,0,0,0.05,30,0)" xlink:href="#aG"/><use transform="matrix(0.05,0,0,0.05,39,0)" xlink:href="#aC"/><use transform="matrix(0.05,0,0,0.05,49,0)" xlink:href="#aB"/></g><path d="M24 0v-261h32V0H24" id="aT"/><g id="r"><use transform="matrix(0.05,0,0,0.05,0,0)" xlink:href="#aT"/><use transform="matrix(0.05,0,0,0.05,3.95,0)" xlink:href="#aC"/><use transform="matrix(0.05,0,0,0.05,13.949999999999998,0)" xlink:href="#aN"/></g><path d="M100-194c63 0 86 42 84 106H49c0 40 14 67 53 68 26 1 43-12 49-29l28 8c-11 28-37 45-77 45C44 4 14-33 15-96c1-61 26-98 85-98zm52 81c6-60-76-77-97-28-3 7-6 17-6 28h103zm-74-98c8-23 27-35 38-54h36v5l-58 49H78" id="aU"/><g id="s"><use transform="matrix(0.05,0,0,0.05,0,0)" xlink:href="#aJ"/><use transform="matrix(0.05,0,0,0.05,10,0)" xlink:href="#aU"/><use transform="matrix(0.05,0,0,0.05,20,0)" xlink:href="#aN"/></g><g id="t"><use transform="matrix(0.05,0,0,0.05,0,0)" xlink:href="#aA"/><use transform="matrix(0.05,0,0,0.05,12.950000000000001,0)" xlink:href="#aD"/><use transform="matrix(0.05,0,0,0.05,22.950000000000003,0)" xlink:href="#aN"/><use transform="matrix(0.05,0,0,0.05,31.950000000000003,0)" xlink:href="#aC"/></g><path d="M210-169c-67 3-38 105-44 169h-31v-121c0-29-5-50-35-48C34-165 62-65 56 0H25l-1-190h30c1 10-1 24 2 32 10-44 99-50 107 0 11-21 27-35 58-36 85-2 47 119 55 194h-31v-121c0-29-5-49-35-48" id="aV"/><g id="u"><use transform="matrix(0.05,0,0,0.05,0,0)" xlink:href="#aC"/><use transform="matrix(0.05,0,0,0.05,10,0)" xlink:href="#aS"/><use transform="matrix(0.05,0,0,0.05,20,0)" xlink:href="#aS"/><use transform="matrix(0.05,0,0,0.05,30,0)" xlink:href="#aC"/><use transform="matrix(0.05,0,0,0.05,40,0)" xlink:href="#aV"/><use transform="matrix(0.05,0,0,0.05,54.95,0)" xlink:href="#aK"/></g><path d="M140-251c81 0 123 46 123 126C263-46 219 4 140 4 59 4 17-45 17-125s42-126 123-126zm0 227c63 0 89-41 89-101s-29-99-89-99c-61 0-89 39-89 99S79-25 140-24" id="aW"/><path d="M160-131c35 5 61 23 61 61C221 17 115-2 30 0v-248c76 3 177-17 177 60 0 33-19 50-47 57zm-97-11c50-1 110 9 110-42 0-47-63-36-110-37v79zm0 115c55-2 124 14 124-45 0-56-70-42-124-44v89" id="aX"/><path d="M205 0l-28-72H64L36 0H1l101-248h38L239 0h-34zm-38-99l-47-123c-12 45-31 82-46 123h93" id="aY"/><path d="M127-220V0H93v-220H8v-28h204v28h-85" id="aZ"/><g id="v"><use transform="matrix(0.05,0,0,0.05,0,0)" xlink:href="#aA"/><use transform="matrix(0.05,0,0,0.05,12.950000000000001,0)" xlink:href="#aW"/><use transform="matrix(0.05,0,0,0.05,26.950000000000003,0)" xlink:href="#aH"/><use transform="matrix(0.05,0,0,0.05,41.900000000000006,0)" xlink:href="#aX"/><use transform="matrix(0.05,0,0,0.05,53.900000000000006,0)" xlink:href="#aY"/><use transform="matrix(0.05,0,0,0.05,64.55000000000001,0)" xlink:href="#aZ"/></g><g id="w"><use transform="matrix(0.05,0,0,0.05,0,0)" xlink:href="#aX"/><use transform="matrix(0.05,0,0,0.05,12,0)" xlink:href="#aI"/><use transform="matrix(0.05,0,0,0.05,22,0)" xlink:href="#aS"/><use transform="matrix(0.05,0,0,0.05,32,0)" xlink:href="#aP"/><use transform="matrix(0.05,0,0,0.05,42,0)" xlink:href="#aN"/></g><path d="M233-177c-1 41-23 64-60 70L243 0h-38l-65-103H63V0H30v-248c88 3 205-21 203 71zM63-129c60-2 137 13 137-47 0-61-80-42-137-45v92" id="ba"/><path d="M30 0v-248h187v28H63v79h144v27H63v87h162V0H30" id="bb"/><g id="x"><use transform="matrix(0.05,0,0,0.05,0,0)" xlink:href="#aY"/><use transform="matrix(0.05,0,0,0.05,12,0)" xlink:href="#ba"/><use transform="matrix(0.05,0,0,0.05,24.950000000000003,0)" xlink:href="#aH"/><use transform="matrix(0.05,0,0,0.05,39.900000000000006,0)" xlink:href="#bb"/></g><path d="M0 4l72-265h28L28 4H0" id="bc"/><use transform="matrix(0.05,0,0,0.05,0,0)" xlink:href="#bc" id="y"/><path d="M185-189c-5-48-123-54-124 2 14 75 158 14 163 119 3 78-121 87-175 55-17-10-28-26-33-46l33-7c5 56 141 63 141-1 0-78-155-14-162-118-5-82 145-84 179-34 5 7 8 16 11 25" id="bd"/><g id="z"><use transform="matrix(0.05,0,0,0.05,0,0)" xlink:href="#bd"/><use transform="matrix(0.05,0,0,0.05,12,0)" xlink:href="#aW"/><use transform="matrix(0.05,0,0,0.05,26,0)" xlink:href="#ba"/><use transform="matrix(0.05,0,0,0.05,38.6,0)" xlink:href="#aZ"/></g><path d="M108 0H70L1-190h34L89-25l56-165h34" id="be"/><g id="A"><use transform="matrix(0.05,0,0,0.05,0,0)" xlink:href="#be"/><use transform="matrix(0.05,0,0,0.05,9,0)" xlink:href="#aK"/><use transform="matrix(0.05,0,0,0.05,12.949999999999998,0)" xlink:href="#aJ"/><use transform="matrix(0.05,0,0,0.05,22.95,0)" xlink:href="#aC"/></g><path d="M143 4C61 4 22-44 18-125c-5-107 100-154 193-111 17 8 29 25 37 43l-32 9c-13-25-37-40-76-40-61 0-88 39-88 99 0 61 29 100 91 101 35 0 62-11 79-27v-45h-74v-28h105v86C228-13 192 4 143 4" id="bf"/><g id="B"><use transform="matrix(0.05,0,0,0.05,0,0)" xlink:href="#bf"/><use transform="matrix(0.05,0,0,0.05,14,0)" xlink:href="#aD"/><use transform="matrix(0.05,0,0,0.05,24,0)" xlink:href="#aV"/><use transform="matrix(0.05,0,0,0.05,38.95,0)" xlink:href="#aC"/></g><g id="C"><use transform="matrix(0.05,0,0,0.05,0,0)" xlink:href="#aW"/><use transform="matrix(0.05,0,0,0.05,14,0)" xlink:href="#be"/><use transform="matrix(0.05,0,0,0.05,23,0)" xlink:href="#aC"/><use transform="matrix(0.05,0,0,0.05,33,0)" xlink:href="#aB"/></g><path fill="#333" d="M118-107v75H92v-75H18v-26h74v-75h26v75h74v26h-74" id="bg"/><path fill="#333" d="M27 0v-27h64v-190l-56 39v-29l58-41h29v221h61V0H27" id="bh"/><g id="D"><use transform="matrix(0.05,0,0,0.05,0,0)" xlink:href="#bg"/><use transform="matrix(0.05,0,0,0.05,10.5,0)" xlink:href="#bh"/></g><path fill="#333" d="M115-194c55 1 70 41 70 98S169 2 115 4C84 4 66-9 55-30l1 105H24l-1-265h31l2 30c10-21 28-34 59-34zm-8 174c40 0 45-34 45-75s-6-73-45-74c-42 0-51 32-51 76 0 43 10 73 51 73" id="bi"/><path fill="#333" d="M108 0H70L1-190h34L89-25l56-165h34" id="bj"/><g id="E"><use transform="matrix(0.05,0,0,0.05,0,0)" xlink:href="#bi"/><use transform="matrix(0.05,0,0,0.05,10,0)" xlink:href="#bj"/></g><path d="M110-160c48 1 74 30 74 79 0 53-28 85-80 85-65 0-83-55-86-122-5-90 50-162 133-122 14 7 22 21 27 39l-31 6c-5-40-67-38-82-6-9 19-15 44-15 74 11-20 30-34 60-33zm-7 138c34 0 49-23 49-58s-16-56-50-56c-29 0-50 16-49 49 1 36 15 65 50 65" id="bk"/><path d="M155-56V0h-30v-56H8v-25l114-167h33v167h35v25h-35zm-30-156c-27 46-58 90-88 131h88v-131" id="bl"/><g id="F"><use transform="matrix(0.05,0,0,0.05,0,0)" xlink:href="#bk"/><use transform="matrix(0.05,0,0,0.05,10,0)" xlink:href="#bl"/></g><path d="M103-251c84 0 111 97 45 133-19 10-37 24-39 52H78c0-63 77-55 77-114 0-30-21-42-52-43-32 0-53 17-56 46l-32-2c7-45 34-72 88-72zM77 0v-35h34V0H77" id="bm"/><use transform="matrix(0.05,0,0,0.05,0,0)" xlink:href="#bm" id="G"/><path d="M30-248c118-7 216 8 213 122C240-48 200 0 122 0H30v-248zM63-27c89 8 146-16 146-99s-60-101-146-95v194" id="bn"/><path d="M115-194c55 1 70 41 70 98S169 2 115 4C84 4 66-9 55-30l1 105H24l-1-265h31l2 30c10-21 28-34 59-34zm-8 174c40 0 45-34 45-75s-6-73-45-74c-42 0-51 32-51 76 0 43 10 73 51 73" id="bo"/><g id="H"><use transform="matrix(0.05,0,0,0.05,0,0)" xlink:href="#bn"/><use transform="matrix(0.05,0,0,0.05,12.950000000000001,0)" xlink:href="#aU"/><use transform="matrix(0.05,0,0,0.05,22.950000000000003,0)" xlink:href="#bo"/><use transform="matrix(0.05,0,0,0.05,32.95,0)" xlink:href="#aD"/><use transform="matrix(0.05,0,0,0.05,42.95,0)" xlink:href="#aN"/><use transform="matrix(0.05,0,0,0.05,51.95,0)" xlink:href="#aN"/><use transform="matrix(0.05,0,0,0.05,60.95,0)" xlink:href="#aC"/><use transform="matrix(0.05,0,0,0.05,70.95,0)" xlink:href="#aV"/><use transform="matrix(0.05,0,0,0.05,85.9,0)" xlink:href="#aC"/><use transform="matrix(0.05,0,0,0.05,95.9,0)" xlink:href="#aS"/><use transform="matrix(0.05,0,0,0.05,105.9,0)" xlink:href="#aE"/></g><g id="I"><use transform="matrix(0.05,0,0,0.05,0,0)" xlink:href="#bo"/><use transform="matrix(0.05,0,0,0.05,10,0)" xlink:href="#aT"/><use transform="matrix(0.05,0,0,0.05,13.949999999999998,0)" xlink:href="#aD"/><use transform="matrix(0.05,0,0,0.05,23.95,0)" xlink:href="#aE"/><use transform="matrix(0.05,0,0,0.05,28.950000000000003,0)" xlink:href="#aC"/><use transform="matrix(0.05,0,0,0.05,38.95,0)" xlink:href="#aD"/><use transform="matrix(0.05,0,0,0.05,48.95,0)" xlink:href="#aP"/></g><path fill="#333" d="M190 0L58-211 59 0H30v-248h39L202-35l-2-213h31V0h-41" id="bp"/><path fill="#333" d="M100-194c62-1 85 37 85 99 1 63-27 99-86 99S16-35 15-95c0-66 28-99 85-99zM99-20c44 1 53-31 53-75 0-43-8-75-51-75s-53 32-53 75 10 74 51 75" id="bq"/><path fill="#333" d="M117-194c89-4 53 116 60 194h-32v-121c0-31-8-49-39-48C34-167 62-67 57 0H25l-1-190h30c1 10-1 24 2 32 11-22 29-35 61-36" id="br"/><g id="J"><use transform="matrix(0.05,0,0,0.05,0,0)" xlink:href="#bp"/><use transform="matrix(0.05,0,0,0.05,12.950000000000001,0)" xlink:href="#bq"/><use transform="matrix(0.05,0,0,0.05,22.950000000000003,0)" xlink:href="#br"/></g><path d="M137 0h-34L2-248h35l83 218 83-218h36" id="bs"/><g id="K"><use transform="matrix(0.05,0,0,0.05,0,0)" xlink:href="#bs"/><use transform="matrix(0.05,0,0,0.05,11.65,0)" xlink:href="#aK"/><use transform="matrix(0.05,0,0,0.05,15.600000000000001,0)" xlink:href="#aG"/><use transform="matrix(0.05,0,0,0.05,24.6,0)" xlink:href="#aE"/><use transform="matrix(0.05,0,0,0.05,29.6,0)" xlink:href="#aI"/><use transform="matrix(0.05,0,0,0.05,39.6,0)" xlink:href="#aK"/><use transform="matrix(0.05,0,0,0.05,43.550000000000004,0)" xlink:href="#aB"/><use transform="matrix(0.05,0,0,0.05,49.50000000000001,0)" xlink:href="#aC"/></g><path d="M63-70H37l-4-178h34zM33 0v-35h34V0H33" id="bt"/><use transform="matrix(0.05,0,0,0.05,0,0)" xlink:href="#bt" id="L"/></defs></g></svg>